<svg xmlns="http://www.w3.org/2000/svg" width="1000" height="560" viewBox="0 0 1000 560" role="img" aria-labelledby="title desc">
  <title id="title">Northline Private Hire demo interior</title>
  <desc id="desc">Stylized placeholder art of a calm premium car interior for a fictional portfolio brand.</desc>
  <defs>
    <linearGradient id="bg" x1="0" y1="0" x2="1000" y2="560" gradientUnits="userSpaceOnUse">
      <stop stop-color="#1A2338"/>
      <stop offset=".55" stop-color="#080D19"/>
      <stop offset="1" stop-color="#040710"/>
    </linearGradient>
    <linearGradient id="seat" x1="120" y1="204" x2="891" y2="581" gradientUnits="userSpaceOnUse">
      <stop stop-color="#283247"/>
      <stop offset=".48" stop-color="#101827"/>
      <stop offset="1" stop-color="#050710"/>
    </linearGradient>
    <linearGradient id="gold" x1="203" y1="137" x2="808" y2="441" gradientUnits="userSpaceOnUse">
      <stop stop-color="#E8C86A"/>
      <stop offset=".52" stop-color="#C8963E"/>
      <stop offset="1" stop-color="#76541F"/>
    </linearGradient>
  </defs>
  <rect width="1000" height="560" fill="url(#bg)"/>
  <path d="M96 186c172-74 614-76 808 0v205H96V186Z" fill="#0B1020" stroke="#1E2A42" stroke-width="4"/>
  <path d="M134 242h732" stroke="url(#gold)" stroke-width="6" stroke-linecap="round"/>
  <path d="M127 375c66-83 172-118 287-92l86 19 86-19c115-26 221 9 287 92v185H127V375Z" fill="url(#seat)"/>
  <path d="M220 332c55-56 143-73 226-45l54 18-70 255H188l32-228Z" fill="#111827" stroke="#2A3857" stroke-width="4"/>
  <path d="M780 332c-55-56-143-73-226-45l-54 18 70 255h242l-32-228Z" fill="#111827" stroke="#2A3857" stroke-width="4"/>
  <path d="M418 315h164l41 245H377l41-245Z" fill="#0B1020" stroke="#1E2A42" stroke-width="4"/>
  <path d="M178 436h644" stroke="#F4EFE3" stroke-opacity=".08" stroke-width="2"/>
  <path d="M246 398h178M576 398h178" stroke="#C8963E" stroke-opacity=".42" stroke-width="3" stroke-linecap="round"/>
  <circle cx="500" cy="206" r="62" fill="#080D19" stroke="#2A3857" stroke-width="8"/>
  <circle cx="500" cy="206" r="26" fill="#111827" stroke="#C8963E" stroke-opacity=".55" stroke-width="5"/>
  <path d="M406 132h188" stroke="#F4EFE3" stroke-opacity=".16" stroke-width="5" stroke-linecap="round"/>
  <path d="M86 504h828" stroke="#C8963E" stroke-opacity=".18" stroke-width="2"/>
</svg>
